HIERARCHY
ROOT root
{
	OFFSET 0.000000 0.000000 0.000000
	CHANNELS 6 Xposition Yposition Zposition Zrotation Yrotation Xrotation
	JOINT lhip
	{
		OFFSET 0.058581 -0.082280 -0.017664
		CHANNELS 3 Zrotation Yrotation Xrotation
		JOINT lknee
		{
			OFFSET 0.043451 -0.386469 0.008037
			CHANNELS 3 Zrotation Yrotation Xrotation
			JOINT lankle
			{
				OFFSET -0.014790 -0.426874 -0.037428
				CHANNELS 3 Zrotation Yrotation Xrotation
				JOINT ltoe
				{
					OFFSET 0.041054 -0.060286 0.122042
					CHANNELS 3 Zrotation Yrotation Xrotation
					End Site
					{
						OFFSET 0.000000 0.000000 0.000000
					}
				}
			}
		}
	}
	JOINT rhip
	{
		OFFSET -0.060310 -0.090513 -0.013543
		CHANNELS 3 Zrotation Yrotation Xrotation
		JOINT rknee
		{
			OFFSET -0.043257 -0.383688 -0.004843
			CHANNELS 3 Zrotation Yrotation Xrotation
			JOINT rankle
			{
				OFFSET 0.019056 -0.420046 -0.034562
				CHANNELS 3 Zrotation Yrotation Xrotation
				JOINT rtoe
				{
					OFFSET -0.034840 -0.062106 0.130323
					CHANNELS 3 Zrotation Yrotation Xrotation
					End Site
					{
						OFFSET 0.000000 0.000000 0.000000
					}
				}
			}
		}
	}
	JOINT lowerback
	{
		OFFSET 0.004439 0.124404 -0.038385
		CHANNELS 3 Zrotation Yrotation Xrotation
		JOINT upperback
		{
			OFFSET 0.004488 0.137956 0.026820
			CHANNELS 3 Zrotation Yrotation Xrotation
			JOINT chest
			{
				OFFSET -0.002265 0.056032 0.002855
				CHANNELS 3 Zrotation Yrotation Xrotation
				JOINT lowerneck
				{
					OFFSET -0.013390 0.211636 -0.033468
					CHANNELS 3 Zrotation Yrotation Xrotation
					JOINT upperneck
					{
						OFFSET 0.010113 0.088937 0.050410
						CHANNELS 3 Zrotation Yrotation Xrotation
						End Site
						{
							OFFSET 0.000000 0.000000 0.000000
						}
					}
				}
				JOINT lclavicle
				{
					OFFSET 0.071702 0.114000 -0.018898
					CHANNELS 3 Zrotation Yrotation Xrotation
					JOINT lshoulder
					{
						OFFSET 0.122921 0.045205 -0.019046
						CHANNELS 3 Zrotation Yrotation Xrotation
						JOINT lelbow
						{
							OFFSET 0.255332 -0.015649 -0.022946
							CHANNELS 3 Zrotation Yrotation Xrotation
							JOINT lwrist
							{
								OFFSET 0.265709 0.012698 -0.007375
								CHANNELS 3 Zrotation Yrotation Xrotation
								End Site
								{
									OFFSET 0.000000 0.000000 0.000000
								}
							}
						}
					}
				}
				JOINT rclavicle
				{
					OFFSET -0.082954 0.112472 -0.023707
					CHANNELS 3 Zrotation Yrotation Xrotation
					JOINT rshoulder
					{
						OFFSET -0.113228 0.046853 -0.008472
						CHANNELS 3 Zrotation Yrotation Xrotation
						JOINT relbow
						{
							OFFSET -0.260127 -0.014369 -0.031269
							CHANNELS 3 Zrotation Yrotation Xrotation
							JOINT rwrist
							{
								OFFSET -0.269108 0.006794 -0.006027
								CHANNELS 3 Zrotation Yrotation Xrotation
								End Site
								{
									OFFSET 0.000000 0.000000 0.000000
								}
							}
						}
					}
				}
			}
		}
	}
}
MOTION
Frames: 8
Frame Time: 0.033333
0.027684 0.253955 1.005343 86.553021 -0.505052 83.181830 4.266604 2.682975 7.328526 -2.664173 2.294463 4.155320 -1.235109 8.321443 -4.201882 0.000000 -0.000000 0.000000 -4.321269 -7.028190 3.875781 -0.416027 -5.903819 9.091116 5.477227 -3.448427 -5.400487 0.000000 -0.000000 0.000000 -0.517252 0.952224 8.513489 -1.285521 -1.896234 5.459631 -0.421163 1.924857 2.747792 -4.445625 -9.489663 -7.041955 3.376042 -9.969039 2.948051 -12.417908 7.082077 0.559590 -63.519924 4.677603 11.702628 -40.951128 -81.606385 67.246517 -22.762398 -7.989812 -23.336382 10.208442 0.965330 -1.381215 66.164455 -2.532852 15.982425 18.004835 78.272340 58.253048 51.567590 -14.058695 12.444960 
0.028120 0.254270 1.005224 86.618067 -0.481849 83.316025 4.265962 2.582150 7.230157 -2.712564 2.146993 4.055665 -1.438370 8.543369 -4.237656 0.000000 -0.000000 0.000000 -4.283084 -7.009038 3.788633 -0.415187 -5.882423 9.013620 5.813957 -3.736952 -5.362230 0.000000 -0.000000 0.000000 -0.399830 0.819351 8.524754 -1.368175 -1.868763 5.244625 -0.483701 1.898722 2.985704 -4.461772 -9.641124 -7.445178 3.385059 -9.762416 3.224411 -12.338151 6.951928 0.572415 -63.500607 4.625345 11.586783 -41.824983 -81.579098 68.504086 -22.536076 -8.086929 -23.687246 10.175880 0.994263 -1.394815 66.387714 -2.523492 16.118449 16.925098 78.399300 57.459482 51.439616 -13.806511 12.339862 
0.027724 0.254102 1.005376 86.314325 -0.509296 83.361594 4.281962 2.778110 7.210131 -2.739221 2.317643 4.044511 -1.488958 8.524331 -4.273220 0.000000 -0.000000 0.000000 -4.161889 -6.737246 3.476425 -0.629502 -5.885557 9.301854 5.866103 -3.633745 -5.504725 0.000000 -0.000000 0.000000 -0.520440 0.926608 8.789372 -1.314541 -1.684416 5.044799 -0.443943 1.955924 2.953295 -4.393123 -9.561171 -7.454063 3.286146 -9.923447 3.247418 -12.277084 6.876428 0.487223 -63.586717 4.537814 11.763214 -40.155934 -81.521552 66.836678 -22.362936 -8.063079 -23.470440 10.212583 1.017380 -1.390130 66.551204 -2.637965 16.265964 15.377200 78.577470 55.862124 51.040163 -13.889666 12.621273 
0.028250 0.254269 1.005837 86.406298 -0.479288 83.303051 4.294305 2.853212 7.293450 -2.712482 2.224861 4.058156 -1.413822 8.412044 -4.331791 0.000000 -0.000000 0.000000 -4.179241 -6.826075 3.549550 -0.568066 -6.085384 9.454386 5.804908 -3.655288 -5.272763 0.000000 -0.000000 0.000000 -0.431282 0.879172 9.011520 -1.322172 -1.749120 4.987067 -0.448974 1.934830 2.889298 -4.416871 -9.618493 -7.565626 3.242274 -10.186492 3.546253 -12.346801 6.646501 0.604269 -63.570179 4.600880 11.517495 -39.991011 -81.674936 66.745261 -22.831660 -7.973626 -22.980561 10.192646 1.223950 -1.309875 66.757852 -2.783883 16.049142 14.344436 78.720225 54.934630 51.139846 -13.938694 12.606967 
0.028838 0.254260 1.005823 86.386601 -0.499793 83.418530 4.273365 2.897231 7.253956 -2.722523 2.268114 3.970853 -1.411335 8.371152 -4.271627 0.000000 -0.000000 0.000000 -4.198318 -6.798334 3.465006 -0.555385 -6.099830 9.444568 5.781315 -3.657956 -5.301153 0.000000 -0.000000 0.000000 -0.454120 0.885032 8.879122 -1.313568 -1.722562 5.021022 -0.454030 1.911108 2.805111 -4.372374 -9.699237 -7.431441 3.239639 -10.189338 3.494885 -12.362836 6.723215 0.630835 -63.531400 4.604659 11.430145 -40.263096 -81.708204 67.054914 -23.208846 -7.981817 -22.826604 10.232881 1.172169 -1.272264 66.818938 -2.779814 15.993856 14.304867 78.761115 54.875642 51.710977 -13.963098 12.310886 
0.030437 0.254761 1.005702 86.722422 -0.551144 83.548632 4.113180 2.772864 7.235096 -2.630488 2.110859 3.847925 -1.327775 8.320895 -4.224853 0.000000 -0.000000 0.000000 -4.422616 -7.085827 3.681439 -0.374874 -6.181457 9.125410 5.794371 -3.636637 -5.231367 0.000000 -0.000000 0.000000 -0.404022 0.794440 8.360500 -1.339021 -1.942290 5.432084 -0.503861 1.893753 2.750145 -4.331402 -9.855833 -7.282650 3.367073 -10.315068 3.512188 -12.394022 6.744255 0.734218 -63.710171 4.638400 11.268756 -40.047063 -82.002483 66.983027 -23.529599 -7.865924 -22.909892 10.310460 1.168230 -1.116136 66.775082 -2.590727 15.770121 15.101368 78.782868 55.861284 52.061277 -13.864363 12.145937 
0.031206 0.254540 1.005712 86.755568 -0.572736 83.714406 4.086905 2.707972 7.231326 -2.629004 2.122827 3.574651 -1.330148 8.381104 -4.121464 0.000000 -0.000000 0.000000 -4.411219 -7.104895 3.608737 -0.375182 -6.200718 9.042133 5.777482 -3.643622 -5.234283 0.000000 -0.000000 0.000000 -0.448251 0.782913 8.110578 -1.325132 -1.963034 5.384344 -0.530094 1.926297 2.827381 -4.353148 -9.816086 -7.158904 3.648697 -10.616035 3.592162 -12.391420 6.908143 0.689551 -63.826071 4.668960 11.175284 -40.736953 -82.191237 67.990384 -23.870471 -7.889677 -22.778476 10.438682 1.050798 -1.152400 66.753620 -2.520009 15.714650 16.288281 78.838617 57.297514 52.133038 -13.768150 12.055363 
0.031948 0.254231 1.005672 86.741205 -0.554292 83.897438 4.148558 2.791052 7.165989 -2.637645 2.192305 3.441123 -1.386450 8.216503 -4.059354 0.000000 -0.000000 0.000000 -4.339272 -7.063221 3.515973 -0.409479 -6.314555 8.981618 5.831417 -3.591820 -5.213515 0.000000 -0.000000 0.000000 -0.483091 0.785093 7.802929 -1.217550 -1.945033 5.432027 -0.510646 1.901962 2.857680 -4.190097 -9.866832 -7.002192 3.585198 -10.911625 3.591819 -12.468677 7.124416 0.664315 -63.941123 4.671733 11.219882 -42.083783 -82.469592 69.542875 -24.210742 -7.798164 -22.612770 10.501964 0.882128 -1.152693 66.700976 -2.407299 15.785424 17.650284 79.144971 58.764721 52.308530 -13.702157 11.894298 
